<svg width="31" height="31" viewBox="0 0 31 31" fill="none" xmlns="http://www.w3.org/2000/svg">
<rect x="0.170898" y="0.475586" width="29.9408" height="29.9408" rx="14.9704" fill="#5A5A5A"/>
<path d="M14 10H16C16 9.73478 15.8946 9.48043 15.7071 9.29289C15.5196 9.10536 15.2652 9 15 9C14.7348 9 14.4804 9.10536 14.2929 9.29289C14.1054 9.48043 14 9.73478 14 10ZM13 10C13 9.46957 13.2107 8.96086 13.5858 8.58579C13.9609 8.21071 14.4696 8 15 8C15.5304 8 16.0391 8.21071 16.4142 8.58579C16.7893 8.96086 17 9.46957 17 10H21C21.1326 10 21.2598 10.0527 21.3536 10.1464C21.4473 10.2402 21.5 10.3674 21.5 10.5C21.5 10.6326 21.4473 10.7598 21.3536 10.8536C21.2598 10.9473 21.1326 11 21 11H20.436L19.231 19.838C19.1493 20.4369 18.8533 20.986 18.3979 21.3835C17.9425 21.781 17.3585 22 16.754 22H13.246C12.6415 22 12.0575 21.781 11.6021 21.3835C11.1467 20.986 10.8507 20.4369 10.769 19.838L9.564 11H9C8.86739 11 8.74021 10.9473 8.64645 10.8536C8.55268 10.7598 8.5 10.6326 8.5 10.5C8.5 10.3674 8.55268 10.2402 8.64645 10.1464C8.74021 10.0527 8.86739 10 9 10H13ZM14 13.5C14 13.3674 13.9473 13.2402 13.8536 13.1464C13.7598 13.0527 13.6326 13 13.5 13C13.3674 13 13.2402 13.0527 13.1464 13.1464C13.0527 13.2402 13 13.3674 13 13.5V18.5C13 18.6326 13.0527 18.7598 13.1464 18.8536C13.2402 18.9473 13.3674 19 13.5 19C13.6326 19 13.7598 18.9473 13.8536 18.8536C13.9473 18.7598 14 18.6326 14 18.5V13.5ZM16.5 13C16.6326 13 16.7598 13.0527 16.8536 13.1464C16.9473 13.2402 17 13.3674 17 13.5V18.5C17 18.6326 16.9473 18.7598 16.8536 18.8536C16.7598 18.9473 16.6326 19 16.5 19C16.3674 19 16.2402 18.9473 16.1464 18.8536C16.0527 18.7598 16 18.6326 16 18.5V13.5C16 13.3674 16.0527 13.2402 16.1464 13.1464C16.2402 13.0527 16.3674 13 16.5 13ZM11.76 19.703C11.8091 20.0623 11.9866 20.3916 12.2598 20.6301C12.533 20.8685 12.8834 21 13.246 21H16.754C17.1168 21.0002 17.4674 20.8689 17.7408 20.6304C18.0142 20.3919 18.1919 20.0625 18.241 19.703L19.427 11H10.573L11.76 19.703Z" fill="white"/>
</svg>
